# xmcd
#
# Track frame offsets:
#	150
#	19957
#	32154
#	48885
#	83551
#	103764
#	122684
#	134449
#	151632
#	164130
#	179220
#
# Disc length: 2515 seconds
# Revision: 1
# Processed by: cddbd v1.5.2PL0 Copyright (c) Steve Scherf et al.
# Submitted via: dBpowerAMP V12.0
#
DISCID=9009d10b
DTITLE=Swingshift  - Bar Lines
DYEAR=2005
DGENRE=Big Band
TTITLE0=Splanky
TTITLE1=East of the Sun
TTITLE2=Basie-cally Speaking
TTITLE3=MacArthur Park
TTITLE4=If I Ruled the World
TTITLE5=Glocca Morra
TTITLE6=Beautiful Friendship
TTITLE7=Hay Burner
TTITLE8=A Foggy Day
TTITLE9=Peter Gunn
TTITLE10=Bill Bailey
EXTD=
EXTT0=
EXTT1=
EXTT2=
EXTT3=
EXTT4=
EXTT5=
EXTT6=
EXTT7=
EXTT8=
EXTT9=
EXTT10=
PLAYORDER=
